<mxfile host="app.diagrams.net" modified="2023-10-02T13:52:04.312Z" agent="Mozilla/5.0 (X11; Linux x86_64; rv:109.0) Gecko/20100101 Firefox/118.0" etag="5iomp5fUfJlDcbRsUdJf" version="22.0.0" type="device">
  <diagram name="Page-1" id="822b0af5-4adb-64df-f703-e8dfc1f81529">
    <mxGraphModel dx="2294" dy="2461" grid="1" gridSize="10" guides="1" tooltips="1" connect="1" arrows="1" fold="1" page="1" pageScale="1" pageWidth="1100" pageHeight="850" background="none" math="0" shadow="0">
      <root>
        <mxCell id="0" />
        <mxCell id="1" parent="0" />
        <mxCell id="7d933b09d9755ecc-5" value="Medcase&lt;br&gt;&lt;div&gt;API&lt;/div&gt;" style="verticalLabelPosition=bottom;aspect=fixed;html=1;verticalAlign=top;strokeColor=none;shape=mxgraph.citrix.file_server;rounded=0;shadow=0;comic=0;fontFamily=Verdana;" parent="1" vertex="1">
          <mxGeometry x="-1000" y="-1117" width="71" height="97" as="geometry" />
        </mxCell>
        <mxCell id="BV0hq-VL02hFemEwukIW-1" value="&lt;div&gt;Renegade &lt;br&gt;API&lt;/div&gt;&lt;div&gt;&lt;br&gt;&lt;/div&gt;" style="verticalLabelPosition=bottom;aspect=fixed;html=1;verticalAlign=top;strokeColor=none;shape=mxgraph.citrix.file_server;rounded=0;shadow=0;comic=0;fontFamily=Verdana;" parent="1" vertex="1">
          <mxGeometry x="-341" y="-775.25" width="71" height="97" as="geometry" />
        </mxCell>
        <mxCell id="BV0hq-VL02hFemEwukIW-18" value="" style="endArrow=none;dashed=1;html=1;dashPattern=1 3;strokeWidth=4;rounded=0;" parent="1" edge="1">
          <mxGeometry width="50" height="50" relative="1" as="geometry">
            <mxPoint x="-880" y="-590" as="sourcePoint" />
            <mxPoint x="-880" y="-1400" as="targetPoint" />
          </mxGeometry>
        </mxCell>
        <mxCell id="BV0hq-VL02hFemEwukIW-19" value="Orchard&lt;br&gt;&lt;div&gt;API&lt;/div&gt;&lt;div&gt;&lt;br&gt;&lt;/div&gt;" style="verticalLabelPosition=bottom;aspect=fixed;html=1;verticalAlign=top;strokeColor=none;shape=mxgraph.citrix.file_server;rounded=0;shadow=0;comic=0;fontFamily=Verdana;" parent="1" vertex="1">
          <mxGeometry x="-431" y="-1610" width="71" height="97" as="geometry" />
        </mxCell>
        <mxCell id="BV0hq-VL02hFemEwukIW-20" value="" style="endArrow=none;dashed=1;html=1;dashPattern=1 3;strokeWidth=4;strokeColor=default;rounded=0;" parent="1" edge="1">
          <mxGeometry width="50" height="50" relative="1" as="geometry">
            <mxPoint x="70" y="-1440" as="sourcePoint" />
            <mxPoint x="-850" y="-1440" as="targetPoint" />
          </mxGeometry>
        </mxCell>
        <mxCell id="BV0hq-VL02hFemEwukIW-50" value="" style="endArrow=classic;html=1;rounded=0;strokeWidth=3;fillColor=#f8cecc;strokeColor=#FF3333;" parent="1" edge="1">
          <mxGeometry width="50" height="50" relative="1" as="geometry">
            <mxPoint x="-860" y="-722" as="sourcePoint" />
            <mxPoint x="-519.5" y="-722" as="targetPoint" />
          </mxGeometry>
        </mxCell>
        <mxCell id="BV0hq-VL02hFemEwukIW-52" value="" style="endArrow=classic;html=1;rounded=0;exitX=1;exitY=0.5;exitDx=0;exitDy=0;" parent="1" edge="1" target="BV0hq-VL02hFemEwukIW-1" source="BV0hq-VL02hFemEwukIW-77">
          <mxGeometry width="50" height="50" relative="1" as="geometry">
            <mxPoint x="-420" y="-726.25" as="sourcePoint" />
            <mxPoint x="-410" y="-662" as="targetPoint" />
          </mxGeometry>
        </mxCell>
        <mxCell id="BV0hq-VL02hFemEwukIW-75" value="" style="endArrow=none;dashed=1;html=1;dashPattern=1 3;strokeWidth=4;rounded=0;" parent="1" edge="1">
          <mxGeometry width="50" height="50" relative="1" as="geometry">
            <mxPoint x="-840" y="-530" as="sourcePoint" />
            <mxPoint x="70" y="-530" as="targetPoint" />
          </mxGeometry>
        </mxCell>
        <mxCell id="BV0hq-VL02hFemEwukIW-77" value="MC&lt;br&gt;WebHooks" style="rounded=0;whiteSpace=wrap;html=1;" parent="1" vertex="1">
          <mxGeometry x="-501" y="-775.25" width="70" height="100" as="geometry" />
        </mxCell>
        <mxCell id="BV0hq-VL02hFemEwukIW-81" value="" style="endArrow=none;html=1;rounded=0;" parent="1" edge="1">
          <mxGeometry width="50" height="50" relative="1" as="geometry">
            <mxPoint x="-1090" y="-260" as="sourcePoint" />
            <mxPoint x="-1090" y="-1690" as="targetPoint" />
          </mxGeometry>
        </mxCell>
        <mxCell id="BV0hq-VL02hFemEwukIW-82" value="" style="endArrow=none;html=1;rounded=0;" parent="1" edge="1">
          <mxGeometry width="50" height="50" relative="1" as="geometry">
            <mxPoint x="310" y="-260" as="sourcePoint" />
            <mxPoint x="310" y="-1690" as="targetPoint" />
          </mxGeometry>
        </mxCell>
        <mxCell id="BV0hq-VL02hFemEwukIW-84" value="&lt;font color=&quot;#00cc00&quot;&gt;&lt;b&gt;&lt;font style=&quot;font-size: 14px;&quot;&gt;ASYNC_TASK_UPDATED&lt;/font&gt;&lt;/b&gt;&lt;/font&gt;" style="text;html=1;strokeColor=none;fillColor=none;align=center;verticalAlign=middle;whiteSpace=wrap;rounded=0;" parent="1" vertex="1">
          <mxGeometry x="-870" y="-752" width="340" height="30" as="geometry" />
        </mxCell>
        <mxCell id="BV0hq-VL02hFemEwukIW-130" value="&lt;font style=&quot;font-size: 26px;&quot;&gt;&lt;b&gt;1&lt;/b&gt;&lt;/font&gt;" style="ellipse;whiteSpace=wrap;html=1;aspect=fixed;" parent="1" vertex="1">
          <mxGeometry x="-850" y="-926.75" width="50" height="50" as="geometry" />
        </mxCell>
        <mxCell id="fdPAEX1X7yWQbD9uU8Fx-1" value="&lt;font style=&quot;font-size: 26px;&quot;&gt;Flow: Orchard release Lab-Results&lt;/font&gt;" style="text;html=1;strokeColor=none;fillColor=none;align=center;verticalAlign=middle;whiteSpace=wrap;rounded=0;" parent="1" vertex="1">
          <mxGeometry x="-1060" y="-1670" width="510" height="100" as="geometry" />
        </mxCell>
        <mxCell id="xMLHkIOAgxsrZiVuTW0o-2" value="&lt;div&gt;Renegade &lt;br&gt;API&lt;/div&gt;&lt;div&gt;&lt;br&gt;&lt;/div&gt;" style="verticalLabelPosition=bottom;aspect=fixed;html=1;verticalAlign=top;strokeColor=none;shape=mxgraph.citrix.file_server;rounded=0;shadow=0;comic=0;fontFamily=Verdana;" vertex="1" parent="1">
          <mxGeometry x="-341" y="-987.5" width="71" height="97" as="geometry" />
        </mxCell>
        <mxCell id="xMLHkIOAgxsrZiVuTW0o-3" value="" style="endArrow=classic;html=1;rounded=0;strokeWidth=3;fillColor=#f8cecc;strokeColor=#FF3333;" edge="1" parent="1">
          <mxGeometry width="50" height="50" relative="1" as="geometry">
            <mxPoint x="-860" y="-934.25" as="sourcePoint" />
            <mxPoint x="-519.5" y="-934.25" as="targetPoint" />
          </mxGeometry>
        </mxCell>
        <mxCell id="xMLHkIOAgxsrZiVuTW0o-4" value="" style="endArrow=classic;html=1;rounded=0;exitX=1;exitY=0.5;exitDx=0;exitDy=0;" edge="1" source="xMLHkIOAgxsrZiVuTW0o-5" target="xMLHkIOAgxsrZiVuTW0o-2" parent="1">
          <mxGeometry width="50" height="50" relative="1" as="geometry">
            <mxPoint x="-420" y="-938.5" as="sourcePoint" />
            <mxPoint x="-410" y="-874.25" as="targetPoint" />
          </mxGeometry>
        </mxCell>
        <mxCell id="xMLHkIOAgxsrZiVuTW0o-5" value="MC&lt;br&gt;WebHooks" style="rounded=0;whiteSpace=wrap;html=1;" vertex="1" parent="1">
          <mxGeometry x="-501" y="-987.5" width="70" height="100" as="geometry" />
        </mxCell>
        <mxCell id="xMLHkIOAgxsrZiVuTW0o-6" value="&lt;font color=&quot;#00cc00&quot;&gt;&lt;b&gt;&lt;font style=&quot;font-size: 14px;&quot;&gt;ASYNC_TASK_UPDATED&lt;/font&gt;&lt;/b&gt;&lt;/font&gt;" style="text;html=1;strokeColor=none;fillColor=none;align=center;verticalAlign=middle;whiteSpace=wrap;rounded=0;" vertex="1" parent="1">
          <mxGeometry x="-870" y="-964.25" width="338" height="30" as="geometry" />
        </mxCell>
        <mxCell id="xMLHkIOAgxsrZiVuTW0o-13" value="&lt;font color=&quot;#007fff&quot; style=&quot;font-size: 14px;&quot;&gt;FINISHED&lt;/font&gt;" style="text;html=1;strokeColor=none;fillColor=none;align=center;verticalAlign=middle;whiteSpace=wrap;rounded=0;" vertex="1" parent="1">
          <mxGeometry x="-740" y="-721" width="60" height="30" as="geometry" />
        </mxCell>
        <mxCell id="xMLHkIOAgxsrZiVuTW0o-14" value="&lt;font color=&quot;#ff3c00&quot;&gt;REJECTED&lt;br&gt;PATIENT_ABSENT&lt;br&gt;CANCELLED&lt;/font&gt;" style="text;html=1;strokeColor=none;fillColor=none;align=center;verticalAlign=middle;whiteSpace=wrap;rounded=0;" vertex="1" parent="1">
          <mxGeometry x="-755" y="-929.75" width="90" height="53" as="geometry" />
        </mxCell>
        <mxCell id="xMLHkIOAgxsrZiVuTW0o-21" value="&lt;b&gt;DB&lt;/b&gt;" style="shape=datastore;whiteSpace=wrap;html=1;" vertex="1" parent="1">
          <mxGeometry x="120" y="-963.5" width="60" height="60" as="geometry" />
        </mxCell>
        <mxCell id="xMLHkIOAgxsrZiVuTW0o-22" value="Update Async-Task&lt;br&gt;Status" style="rounded=0;whiteSpace=wrap;html=1;" vertex="1" parent="1">
          <mxGeometry x="-120" y="-1020" width="160" height="60" as="geometry" />
        </mxCell>
        <mxCell id="xMLHkIOAgxsrZiVuTW0o-23" value="Create Navigator Token" style="rounded=0;whiteSpace=wrap;html=1;" vertex="1" parent="1">
          <mxGeometry x="-120" y="-898.5" width="160" height="60" as="geometry" />
        </mxCell>
        <mxCell id="xMLHkIOAgxsrZiVuTW0o-24" value="" style="endArrow=classic;html=1;rounded=0;exitX=1;exitY=0.5;exitDx=0;exitDy=0;entryX=0;entryY=0.5;entryDx=0;entryDy=0;" edge="1" parent="1" source="xMLHkIOAgxsrZiVuTW0o-23" target="xMLHkIOAgxsrZiVuTW0o-21">
          <mxGeometry width="50" height="50" relative="1" as="geometry">
            <mxPoint x="50" y="-1103.5" as="sourcePoint" />
            <mxPoint x="110" y="-1103.5" as="targetPoint" />
          </mxGeometry>
        </mxCell>
        <mxCell id="xMLHkIOAgxsrZiVuTW0o-25" value="" style="endArrow=classic;html=1;rounded=0;exitX=1;exitY=0.5;exitDx=0;exitDy=0;entryX=0;entryY=0.5;entryDx=0;entryDy=0;" edge="1" parent="1" source="xMLHkIOAgxsrZiVuTW0o-22" target="xMLHkIOAgxsrZiVuTW0o-21">
          <mxGeometry width="50" height="50" relative="1" as="geometry">
            <mxPoint x="60" y="-1093.5" as="sourcePoint" />
            <mxPoint x="120" y="-1093.5" as="targetPoint" />
          </mxGeometry>
        </mxCell>
        <mxCell id="xMLHkIOAgxsrZiVuTW0o-26" value="&lt;div&gt;&lt;font style=&quot;font-size: 26px;&quot;&gt;&lt;b&gt;2&lt;/b&gt;&lt;/font&gt;&lt;/div&gt;" style="ellipse;whiteSpace=wrap;html=1;aspect=fixed;" vertex="1" parent="1">
          <mxGeometry x="-65" y="-953.5" width="50" height="50" as="geometry" />
        </mxCell>
        <mxCell id="xMLHkIOAgxsrZiVuTW0o-27" value="" style="endArrow=classic;html=1;rounded=0;entryX=0;entryY=0.5;entryDx=0;entryDy=0;" edge="1" parent="1" source="xMLHkIOAgxsrZiVuTW0o-2" target="xMLHkIOAgxsrZiVuTW0o-22">
          <mxGeometry width="50" height="50" relative="1" as="geometry">
            <mxPoint x="-250" y="-914.25" as="sourcePoint" />
            <mxPoint x="-240" y="-786.75" as="targetPoint" />
          </mxGeometry>
        </mxCell>
        <mxCell id="xMLHkIOAgxsrZiVuTW0o-28" value="" style="endArrow=classic;html=1;rounded=0;entryX=0;entryY=0.5;entryDx=0;entryDy=0;" edge="1" parent="1" source="xMLHkIOAgxsrZiVuTW0o-2" target="xMLHkIOAgxsrZiVuTW0o-23">
          <mxGeometry width="50" height="50" relative="1" as="geometry">
            <mxPoint x="-240" y="-904.25" as="sourcePoint" />
            <mxPoint x="-110" y="-980.25" as="targetPoint" />
          </mxGeometry>
        </mxCell>
        <mxCell id="xMLHkIOAgxsrZiVuTW0o-34" value="&lt;font style=&quot;font-size: 26px;&quot;&gt;&lt;b&gt;1&lt;/b&gt;&lt;/font&gt;" style="ellipse;whiteSpace=wrap;html=1;aspect=fixed;" vertex="1" parent="1">
          <mxGeometry x="-850" y="-711" width="50" height="50" as="geometry" />
        </mxCell>
        <mxCell id="xMLHkIOAgxsrZiVuTW0o-35" value="&lt;b&gt;DB&lt;/b&gt;" style="shape=datastore;whiteSpace=wrap;html=1;" vertex="1" parent="1">
          <mxGeometry x="120" y="-743.5" width="60" height="60" as="geometry" />
        </mxCell>
        <mxCell id="xMLHkIOAgxsrZiVuTW0o-36" value="Update Async-Task&lt;br&gt;Status" style="rounded=0;whiteSpace=wrap;html=1;" vertex="1" parent="1">
          <mxGeometry x="-120" y="-800" width="160" height="60" as="geometry" />
        </mxCell>
        <mxCell id="xMLHkIOAgxsrZiVuTW0o-37" value="Notify CBOs&lt;br&gt;new results" style="rounded=0;whiteSpace=wrap;html=1;" vertex="1" parent="1">
          <mxGeometry x="-120" y="-678.5" width="160" height="60" as="geometry" />
        </mxCell>
        <mxCell id="xMLHkIOAgxsrZiVuTW0o-38" value="" style="endArrow=classic;html=1;rounded=0;exitX=1;exitY=0.5;exitDx=0;exitDy=0;entryX=0;entryY=0.5;entryDx=0;entryDy=0;" edge="1" source="xMLHkIOAgxsrZiVuTW0o-37" target="xMLHkIOAgxsrZiVuTW0o-35" parent="1">
          <mxGeometry width="50" height="50" relative="1" as="geometry">
            <mxPoint x="50" y="-883.5" as="sourcePoint" />
            <mxPoint x="110" y="-883.5" as="targetPoint" />
          </mxGeometry>
        </mxCell>
        <mxCell id="xMLHkIOAgxsrZiVuTW0o-39" value="" style="endArrow=classic;html=1;rounded=0;exitX=1;exitY=0.5;exitDx=0;exitDy=0;entryX=0;entryY=0.5;entryDx=0;entryDy=0;" edge="1" source="xMLHkIOAgxsrZiVuTW0o-36" target="xMLHkIOAgxsrZiVuTW0o-35" parent="1">
          <mxGeometry width="50" height="50" relative="1" as="geometry">
            <mxPoint x="60" y="-873.5" as="sourcePoint" />
            <mxPoint x="120" y="-873.5" as="targetPoint" />
          </mxGeometry>
        </mxCell>
        <mxCell id="xMLHkIOAgxsrZiVuTW0o-40" value="&lt;font style=&quot;font-size: 26px;&quot;&gt;&lt;b&gt;2&lt;/b&gt;&lt;/font&gt;" style="ellipse;whiteSpace=wrap;html=1;aspect=fixed;" vertex="1" parent="1">
          <mxGeometry x="-65" y="-733.5" width="50" height="50" as="geometry" />
        </mxCell>
        <mxCell id="xMLHkIOAgxsrZiVuTW0o-41" value="" style="endArrow=classic;html=1;rounded=0;entryX=0;entryY=0.5;entryDx=0;entryDy=0;" edge="1" target="xMLHkIOAgxsrZiVuTW0o-36" parent="1" source="BV0hq-VL02hFemEwukIW-1">
          <mxGeometry width="50" height="50" relative="1" as="geometry">
            <mxPoint x="-270" y="-729" as="sourcePoint" />
            <mxPoint x="-240" y="-566.75" as="targetPoint" />
          </mxGeometry>
        </mxCell>
        <mxCell id="xMLHkIOAgxsrZiVuTW0o-42" value="" style="endArrow=classic;html=1;rounded=0;entryX=0;entryY=0.5;entryDx=0;entryDy=0;" edge="1" target="xMLHkIOAgxsrZiVuTW0o-37" parent="1" source="BV0hq-VL02hFemEwukIW-1">
          <mxGeometry width="50" height="50" relative="1" as="geometry">
            <mxPoint x="-270" y="-706" as="sourcePoint" />
            <mxPoint x="-110" y="-760.25" as="targetPoint" />
          </mxGeometry>
        </mxCell>
        <mxCell id="xMLHkIOAgxsrZiVuTW0o-43" value="&lt;font style=&quot;font-size: 26px;&quot;&gt;&lt;b&gt;3&lt;/b&gt;&lt;/font&gt;" style="ellipse;whiteSpace=wrap;html=1;aspect=fixed;" vertex="1" parent="1">
          <mxGeometry x="-260" y="-1330" width="50" height="50" as="geometry" />
        </mxCell>
        <mxCell id="xMLHkIOAgxsrZiVuTW0o-44" value="Sync-Service" style="verticalLabelPosition=bottom;aspect=fixed;html=1;verticalAlign=top;strokeColor=none;shape=mxgraph.citrix.file_server;rounded=0;shadow=0;comic=0;fontFamily=Verdana;" vertex="1" parent="1">
          <mxGeometry x="-344" y="-1293.25" width="71" height="97" as="geometry" />
        </mxCell>
        <mxCell id="xMLHkIOAgxsrZiVuTW0o-45" value="Update Orders" style="ellipse;whiteSpace=wrap;html=1;aspect=fixed;" vertex="1" parent="1">
          <mxGeometry x="-547" y="-1301.25" width="120" height="120" as="geometry" />
        </mxCell>
        <mxCell id="xMLHkIOAgxsrZiVuTW0o-46" value="" style="endArrow=classic;html=1;rounded=0;" edge="1" parent="1" source="xMLHkIOAgxsrZiVuTW0o-45">
          <mxGeometry width="50" height="50" relative="1" as="geometry">
            <mxPoint x="-474" y="-1251.25" as="sourcePoint" />
            <mxPoint x="-444" y="-1281.25" as="targetPoint" />
          </mxGeometry>
        </mxCell>
        <mxCell id="xMLHkIOAgxsrZiVuTW0o-47" value="" style="endArrow=classic;html=1;rounded=0;" edge="1" parent="1">
          <mxGeometry width="50" height="50" relative="1" as="geometry">
            <mxPoint x="-535.5" y="-1241.25" as="sourcePoint" />
            <mxPoint x="-485.5" y="-1191.25" as="targetPoint" />
          </mxGeometry>
        </mxCell>
        <mxCell id="xMLHkIOAgxsrZiVuTW0o-48" value="" style="endArrow=classic;html=1;rounded=0;" edge="1" parent="1">
          <mxGeometry width="50" height="50" relative="1" as="geometry">
            <mxPoint x="-435.5" y="-1241.25" as="sourcePoint" />
            <mxPoint x="-485.5" y="-1291.25" as="targetPoint" />
          </mxGeometry>
        </mxCell>
        <mxCell id="xMLHkIOAgxsrZiVuTW0o-49" value="" style="endArrow=classic;html=1;rounded=0;exitX=0.5;exitY=1;exitDx=0;exitDy=0;entryX=0.5;entryY=1;entryDx=0;entryDy=0;" edge="1" parent="1" source="xMLHkIOAgxsrZiVuTW0o-45" target="xMLHkIOAgxsrZiVuTW0o-50">
          <mxGeometry width="50" height="50" relative="1" as="geometry">
            <mxPoint x="-214" y="-1121.25" as="sourcePoint" />
            <mxPoint x="-54" y="-1131.25" as="targetPoint" />
            <Array as="points">
              <mxPoint x="-487" y="-1131.25" />
              <mxPoint x="-124" y="-1131.25" />
            </Array>
          </mxGeometry>
        </mxCell>
        <mxCell id="xMLHkIOAgxsrZiVuTW0o-50" value="&lt;div&gt;Send &lt;br&gt;Email&lt;br&gt;&lt;/div&gt;&lt;div&gt;Notifications&lt;/div&gt;" style="ellipse;whiteSpace=wrap;html=1;aspect=fixed;" vertex="1" parent="1">
          <mxGeometry x="-184" y="-1301.25" width="120" height="120" as="geometry" />
        </mxCell>
        <mxCell id="xMLHkIOAgxsrZiVuTW0o-51" value="" style="endArrow=classic;html=1;rounded=0;entryX=0.5;entryY=0;entryDx=0;entryDy=0;exitX=0.5;exitY=0;exitDx=0;exitDy=0;" edge="1" parent="1" source="xMLHkIOAgxsrZiVuTW0o-50" target="xMLHkIOAgxsrZiVuTW0o-45">
          <mxGeometry width="50" height="50" relative="1" as="geometry">
            <mxPoint x="-209" y="-1442.25" as="sourcePoint" />
            <mxPoint x="-127" y="-1402.25" as="targetPoint" />
            <Array as="points">
              <mxPoint x="-124" y="-1352.25" />
              <mxPoint x="-489" y="-1352.25" />
            </Array>
          </mxGeometry>
        </mxCell>
        <mxCell id="xMLHkIOAgxsrZiVuTW0o-52" value="" style="endArrow=classic;html=1;rounded=0;" edge="1" parent="1">
          <mxGeometry width="50" height="50" relative="1" as="geometry">
            <mxPoint x="-63" y="-1242.25" as="sourcePoint" />
            <mxPoint x="-23" y="-1242.25" as="targetPoint" />
          </mxGeometry>
        </mxCell>
        <mxCell id="xMLHkIOAgxsrZiVuTW0o-53" value="" style="shape=image;verticalLabelPosition=bottom;verticalAlign=top;aspect=fixed;image=data:image/svg+xml,PHN2ZyB4bWxucz0iaHR0cDovL3d3dy53My5vcmcvMjAwMC9zdmciIHhtbG5zOnhsaW5rPSJodHRwOi8vd3d3LnczLm9yZy8xOTk5L3hsaW5rIiB2ZXJzaW9uPSIxLjEiIGlkPSJMYXllcl8xIiB4PSIwcHgiIHk9IjBweCIgd2lkdGg9IjQ4cHgiIGhlaWdodD0iNDhweCIgdmlld0JveD0iMCAwIDQ4IDQ4IiBlbmFibGUtYmFja2dyb3VuZD0ibmV3IDAgMCA0OCA0OCIgeG1sOnNwYWNlPSJwcmVzZXJ2ZSI+JiN4YTs8ZyBpZD0iY29sb3JfMjhfIj4mI3hhOwk8Zz4mI3hhOwkJPHBhdGggZmlsbC1ydWxlPSJldmVub2RkIiBjbGlwLXJ1bGU9ImV2ZW5vZGQiIGZpbGw9IiNGMTYzNjIiIGQ9Ik00NCwzOEgzM1Y3YzAtMC41NTMtMC40NDctMS0xLTFIN0M2LjQ0Nyw2LDYsNi40NDcsNiw3djMyICAgIGMwLDMuNjY3LDEuOTM4LDUuNzUxLDUuNDM1LDUuOTU5QzEzLjk5Miw0NC41NDgsMTYsNDAuNjE1LDE2LDM4aDJjMCwzLjY2Ny0yLjgyLDYuNjctNi40MSw2Ljk3QzExLjcyOSw0NC45NzYsMTEuODU1LDQ1LDEyLDQ1aDI3ICAgIGMyLjg2NiwwLDYtMi4xMzQsNi01di0xQzQ1LDM4LjQ0Nyw0NC41NTMsMzgsNDQsMzh6Ii8+JiN4YTsJPC9nPiYjeGE7PC9nPiYjeGE7PGcgaWQ9Im91dGxpbmVfMjdfIj4mI3hhOwk8Zz4mI3hhOwkJPHBhdGggZmlsbD0iIzM4NEQ2OCIgZD0iTTIwLDE4SDljLTAuNTUzLDAtMSwwLjQ0Ny0xLDFzMC40NDcsMSwxLDFoMTFjMC41NTMsMCwxLTAuNDQ3LDEtMVMyMC41NTMsMTgsMjAsMTh6IE0yMCwyMkg5ICAgIGMtMC41NTMsMC0xLDAuNDQ3LTEsMXMwLjQ0NywxLDEsMWgxMWMwLjU1MywwLDEtMC40NDcsMS0xUzIwLjU1MywyMiwyMCwyMnogTTQ1LDM3SDM0VjNjMC0wLjU1My0wLjQ0Ny0xLTEtMUgzICAgIEMyLjQ0NywyLDIsMi40NDcsMiwzdjM2YzAsMy44NjYsMy4xMzQsNyw3LDdoMzBjMy44NjYsMCw3LTMuMTM0LDctN3YtMUM0NiwzNy40NDcsNDUuNTUzLDM3LDQ1LDM3eiBNOSw0NGMtMi43NjIsMC01LTIuMjM4LTUtNVY0ICAgIGgyOHYzM0gxNWMtMC41NTMsMC0xLDAuNDQ3LTEsMXYxQzE0LDQxLjc2MiwxMS43NjIsNDQsOSw0NHogTTM5LDQ0SDEzLjg5NUMxNS4xOTIsNDIuNzI5LDE2LDQwLjk2LDE2LDM5aDI4ICAgIEM0NCw0MS43NjIsNDEuNzYyLDQ0LDM5LDQ0eiBNMzAsMTNWN2MwLTAuNTUzLTAuNDQ3LTEtMS0xSDdDNi40NDcsNiw2LDYuNDQ3LDYsN3Y2YzAsMC41NTMsMC40NDcsMSwxLDFoMjIgICAgQzI5LjU1MywxNCwzMCwxMy41NTMsMzAsMTN6IE0xNywxMWMwLDAuNTUzLTAuNDQ3LDEtMSwxSDhWOGg4YzAuNTUzLDAsMSwwLjQ0NywxLDFWMTF6IE0yOCwxMmgtOGMtMC41NTMsMC0xLTAuNDQ3LTEtMVY5ICAgIGMwLTAuNTUzLDAuNDQ3LTEsMS0xaDhWMTJ6IE0xNiwyN2MwLTAuNTUzLTAuNDQ3LTEtMS0xSDljLTAuNTUzLDAtMSwwLjQ0Ny0xLDFzMC40NDcsMSwxLDFoNkMxNS41NTMsMjgsMTYsMjcuNTUzLDE2LDI3eiIvPiYjeGE7CTwvZz4mI3hhOzwvZz4mI3hhOzwvc3ZnPg==" vertex="1" parent="1">
          <mxGeometry x="-8" y="-1265.25" width="48" height="48" as="geometry" />
        </mxCell>
        <mxCell id="xMLHkIOAgxsrZiVuTW0o-54" value="&lt;div&gt;Success ?&lt;br&gt;&lt;/div&gt;" style="ellipse;whiteSpace=wrap;html=1;aspect=fixed;" vertex="1" parent="1">
          <mxGeometry x="-1080" y="-878.25" width="90" height="90" as="geometry" />
        </mxCell>
        <mxCell id="xMLHkIOAgxsrZiVuTW0o-55" value="No" style="ellipse;whiteSpace=wrap;html=1;aspect=fixed;" vertex="1" parent="1">
          <mxGeometry x="-970" y="-920" width="47" height="47" as="geometry" />
        </mxCell>
        <mxCell id="xMLHkIOAgxsrZiVuTW0o-56" value="" style="endArrow=classic;html=1;rounded=0;exitX=1;exitY=0;exitDx=0;exitDy=0;" edge="1" parent="1" source="xMLHkIOAgxsrZiVuTW0o-54" target="xMLHkIOAgxsrZiVuTW0o-55">
          <mxGeometry width="50" height="50" relative="1" as="geometry">
            <mxPoint x="-805" y="-840.75" as="sourcePoint" />
            <mxPoint x="-745" y="-840.75" as="targetPoint" />
          </mxGeometry>
        </mxCell>
        <mxCell id="xMLHkIOAgxsrZiVuTW0o-58" value="" style="endArrow=classic;html=1;rounded=0;exitX=1;exitY=0;exitDx=0;exitDy=0;" edge="1" parent="1" source="xMLHkIOAgxsrZiVuTW0o-55">
          <mxGeometry width="50" height="50" relative="1" as="geometry">
            <mxPoint x="-891.5" y="-701.75" as="sourcePoint" />
            <mxPoint x="-880" y="-930" as="targetPoint" />
          </mxGeometry>
        </mxCell>
        <mxCell id="xMLHkIOAgxsrZiVuTW0o-61" value="Yes" style="ellipse;whiteSpace=wrap;html=1;aspect=fixed;" vertex="1" parent="1">
          <mxGeometry x="-970" y="-790.5" width="47" height="47" as="geometry" />
        </mxCell>
        <mxCell id="xMLHkIOAgxsrZiVuTW0o-62" value="" style="endArrow=classic;html=1;rounded=0;exitX=0.933;exitY=0.825;exitDx=0;exitDy=0;exitPerimeter=0;" edge="1" target="xMLHkIOAgxsrZiVuTW0o-61" parent="1" source="xMLHkIOAgxsrZiVuTW0o-54">
          <mxGeometry width="50" height="50" relative="1" as="geometry">
            <mxPoint x="-990" y="-655" as="sourcePoint" />
            <mxPoint x="-745" y="-662.75" as="targetPoint" />
          </mxGeometry>
        </mxCell>
        <mxCell id="xMLHkIOAgxsrZiVuTW0o-63" value="" style="endArrow=classic;html=1;rounded=0;exitX=0.957;exitY=0.723;exitDx=0;exitDy=0;exitPerimeter=0;" edge="1" source="xMLHkIOAgxsrZiVuTW0o-61" parent="1">
          <mxGeometry width="50" height="50" relative="1" as="geometry">
            <mxPoint x="-891.5" y="-523.75" as="sourcePoint" />
            <mxPoint x="-880" y="-720" as="targetPoint" />
          </mxGeometry>
        </mxCell>
      </root>
    </mxGraphModel>
  </diagram>
</mxfile>
